<svg width="454" height="191" viewBox="0 0 454 191" fill="none" xmlns="http://www.w3.org/2000/svg">
<path d="M101.194 183.455C55.1642 187.915 29.7969 159.299 23.4921 145.673C21.7595 142.579 23.8785 133.632 29.4945 130.054C35.7263 126.083 44.4427 127.589 46.6494 130.203L57.3982 141.516C63.44 146.969 81.1817 156.793 103.813 152.463C126.445 148.134 137.995 127.607 141.696 116.648C142.575 113.428 148.607 105.059 159.659 107.242C170.711 109.425 171.971 119.555 171.219 124.346C166.425 143.103 144.205 179.288 101.194 183.455Z" fill="#02AEF7"/>
<path d="M34.4187 82.4283C27.8812 80.8797 22.3972 77.8782 17.9667 73.4238C13.5575 68.8799 10.488 63.4711 8.75844 57.1974C7.13961 50.8554 7.16814 44.147 8.84404 37.0722C10.5199 29.9974 13.6381 24.0208 18.1986 19.1426C22.8486 14.2855 28.3316 10.9027 34.6477 8.99396C41.0746 7.01691 47.7807 6.85573 54.7659 8.51042C61.7512 10.1651 67.6276 13.3068 72.3951 17.9356C77.1838 22.4749 80.5219 27.9473 82.4094 34.353C84.3864 40.7798 84.537 47.5307 82.8611 54.6055L77.6221 53.3645C75.9462 60.4393 72.9176 66.4371 68.5363 71.3577C64.2657 76.2101 59.1409 79.6778 53.1618 81.7609C47.2039 83.7545 40.9562 83.977 34.4187 82.4283ZM39.9692 70.9749C44.5365 72.0568 48.8658 71.9473 52.9571 70.6466C57.0697 69.2563 60.6013 66.9244 63.5521 63.6511C66.524 60.2881 68.5722 56.2334 69.6965 51.487C70.8421 46.6511 70.8305 42.1085 69.6617 37.8593C68.5141 33.5205 66.4038 29.8522 63.3308 26.8543C60.2789 23.7669 56.4693 21.6822 51.902 20.6003C47.4243 19.5396 43.0844 19.6938 38.8823 21.0629C34.791 22.3637 31.2146 24.6849 28.153 28.0266C25.2023 31.3 23.1541 35.3547 22.0086 40.1906C20.8843 44.937 20.8959 49.4796 22.0434 53.8184C23.3018 58.0888 25.4568 61.7678 28.5087 64.8552C31.6713 67.8743 35.4915 69.9142 39.9692 70.9749ZM67.2912 89.7896C65.321 89.3229 63.8127 88.3036 62.7664 86.7316C61.8309 85.0913 61.5964 83.286 62.0631 81.3158L66.9317 60.763L72.857 47.1284L82.8611 54.6055L75.765 84.5616C75.2983 86.5318 74.2342 88.0294 72.5727 89.0545C71.0219 90.0113 69.2614 90.2563 67.2912 89.7896Z" fill="#6052CC"/>
<path d="M33.1484 4.03216C40.5097 1.77255 48.149 1.61603 55.9607 3.46646C63.7804 5.31882 70.5141 8.88377 76.0063 14.2162C81.4276 19.3695 85.224 25.6031 87.3637 32.8287C89.6341 40.2091 89.7761 47.9029 87.9053 55.8004L80.8092 85.7563C80.0387 89.0089 78.1738 91.6899 75.2948 93.4663C72.4388 95.2283 69.2415 95.5786 66.0965 94.8337C62.9497 94.0882 60.2805 92.3524 58.4511 89.604L58.352 89.4553L58.2633 89.3001C57.6337 88.1962 57.1944 87.048 56.9341 85.8742C56.2552 86.1512 55.5665 86.4124 54.8673 86.656L54.8368 86.6666L54.8069 86.6767C47.8688 88.9982 40.6335 89.2276 33.2239 87.4724C25.8143 85.7172 19.4509 82.2665 14.2915 77.0793L14.2688 77.0568L14.2467 77.0339C9.21372 71.8471 5.7156 65.6641 3.76125 58.5753L3.74805 58.5275L3.73587 58.4797C1.8877 51.2392 1.95262 43.6757 3.79986 35.8775C5.6647 28.005 9.18126 21.1975 14.4117 15.6025L14.4326 15.5798L14.4541 15.5576C19.709 10.0688 25.961 6.20416 33.1484 4.03216ZM54.7659 8.51042C47.7807 6.85573 41.0746 7.01691 34.6477 8.99396C28.3316 10.9027 22.8486 14.2855 18.1986 19.1426L17.7753 19.603C13.4447 24.3953 10.4676 30.2184 8.84404 37.0722L8.69178 37.7345C7.16801 44.566 7.1902 51.0536 8.75844 57.1974C10.488 63.4711 13.5575 68.8799 17.9667 73.4238C22.3972 77.8782 27.8812 80.8797 34.4187 82.4283C40.7518 83.9285 46.813 83.7664 52.6021 81.9424L53.1618 81.7609C56.8475 80.4768 60.2077 78.6654 63.2442 76.329L62.0631 81.3158C61.5964 83.286 61.8309 85.0913 62.7664 86.7316C63.8127 88.3036 65.321 89.3229 67.2912 89.7896C69.1998 90.2417 70.9117 90.0259 72.4267 89.1422L72.5727 89.0545C74.1822 88.0615 75.2313 86.625 75.7196 84.7451L75.765 84.5616L82.8611 54.6055C84.537 47.5307 84.3864 40.7798 82.4094 34.353C80.5219 27.9473 77.1838 22.4749 72.3951 17.9356C67.6276 13.3068 61.7512 10.1651 54.7659 8.51042ZM38.8823 21.0629C43.0844 19.6938 47.4243 19.5396 51.902 20.6003C56.4693 21.6822 60.2789 23.7669 63.3308 26.8543C66.4038 29.8522 68.5141 33.5205 69.6617 37.8593C70.8305 42.1085 70.8421 46.6511 69.6965 51.487C68.5722 56.2334 66.524 60.2881 63.5521 63.6511C60.6013 66.9244 57.0697 69.2563 52.9571 70.6466C48.8658 71.9473 44.5365 72.0568 39.9692 70.9749C35.6314 69.9473 31.9105 68.001 28.8069 65.1355L28.5087 64.8552C25.4568 61.7678 23.3018 58.0888 22.0434 53.8184C20.9317 49.6153 20.8859 45.2208 21.9063 40.6351L22.0086 40.1906C23.1541 35.3547 25.2023 31.3 28.153 28.0266C31.2146 24.6849 34.791 22.3637 38.8823 21.0629ZM50.7073 25.6443C47.116 24.7936 43.7465 24.93 40.488 25.9917L40.4529 26.003C37.2822 27.0111 34.4754 28.8059 31.9954 31.5059C29.7025 34.0526 28.0225 37.2914 27.0526 41.3857C26.1145 45.3464 26.1436 48.9949 27.0349 52.4166C28.0523 55.8342 29.7511 58.7203 32.1422 61.1564C34.5932 63.4784 37.5595 65.077 41.164 65.9308C44.8918 66.8139 48.2488 66.6963 51.353 65.7162C54.5802 64.615 57.3383 62.7963 59.6872 60.1956C62.0357 57.5305 63.71 54.2712 64.6525 50.2922C65.6235 46.1933 65.5734 42.5417 64.6636 39.2341L64.65 39.1847C63.7308 35.7092 62.0817 32.8776 59.7108 30.5648L59.677 30.5321L59.6443 30.4984C57.3309 28.158 54.409 26.5211 50.7073 25.6443Z" fill="#6052CC"/>
<path d="M97.3791 114.006C95.4841 113.604 94.0278 112.619 93.0102 111.053C92.0604 109.591 91.7867 107.912 92.1892 106.017L104.702 47.1002C106.233 40.3138 109.126 34.5366 113.379 29.7686C117.633 25.0006 122.759 21.6333 128.758 19.6666C134.775 17.6138 141.143 17.3008 147.862 18.7278C154.666 20.173 160.401 23.0562 165.064 27.3774C169.746 31.6125 173.061 36.7726 175.009 42.8578C177.044 48.9612 177.339 55.4153 175.893 62.22C174.448 69.0247 171.685 74.8294 167.604 79.634C163.627 84.3707 158.802 87.802 153.13 89.928C147.475 91.9679 141.504 92.3201 135.216 90.9846C130.134 89.9053 125.659 87.8747 121.792 84.8927C118.028 81.8429 115.023 78.189 112.777 73.9311L105.368 108.816C104.966 110.711 104.033 112.133 102.571 113.083C101.091 114.119 99.3602 114.427 97.3791 114.006ZM135.102 78.8075C139.495 79.7405 143.633 79.5392 147.518 78.2037C151.421 76.7821 154.747 74.4728 157.496 71.2758C160.35 68.011 162.262 64.096 163.231 59.5308C164.219 54.8795 164.064 50.5254 162.765 46.4687C161.57 42.3441 159.47 38.8823 156.464 36.0833C153.475 33.1981 149.785 31.2891 145.392 30.3561C141.085 29.4414 136.937 29.6857 132.948 31.0891C129.064 32.4246 125.738 34.7339 122.97 38.017C120.221 41.2139 118.352 45.1381 117.364 49.7894C116.395 54.3546 116.507 58.6995 117.701 62.8241C118.914 66.8626 121.015 70.3244 124.003 73.2095C127.095 76.0268 130.795 77.8928 135.102 78.8075Z" fill="#2267E1"/>
<path d="M175.893 62.22C177.339 55.4153 177.044 48.9612 175.009 42.8578C173.061 36.7726 169.746 31.6125 165.064 27.3774C160.401 23.0562 154.666 20.173 147.862 18.7278C141.143 17.3008 134.775 17.6138 128.758 19.6666C122.759 21.6333 117.633 25.0006 113.379 29.7686C109.126 34.5366 106.233 40.3138 104.702 47.1002L92.1892 106.017L92.1215 106.37C91.8235 108.121 92.1198 109.682 93.0102 111.053C93.996 112.57 95.3936 113.542 97.2027 113.967L97.3791 114.006C99.3602 114.427 101.091 114.119 102.571 113.083C103.942 112.193 104.847 110.887 105.287 109.166L105.368 108.816L112.777 73.9311C115.023 78.189 118.028 81.8429 121.792 84.8927C125.538 87.7815 129.855 89.7776 134.742 90.8808L135.216 90.9846C141.307 92.2783 147.102 91.9883 152.598 90.1144L153.13 89.928C158.802 87.802 163.627 84.3707 167.604 79.634C171.557 74.9795 174.274 69.3866 175.754 62.855L175.893 62.22ZM158.161 58.454C158.983 54.5802 158.821 51.1504 157.828 48.0494L157.806 47.9806L157.785 47.9105C156.839 44.6437 155.219 42.008 152.931 39.8774L152.897 39.8454L152.863 39.8123C150.631 37.6568 147.838 36.175 144.315 35.4268C140.899 34.7014 137.721 34.9052 134.669 35.9792L134.634 35.9915C131.677 37.0081 129.126 38.7578 126.933 41.3581L126.917 41.3779L126.9 41.3971C124.788 43.8537 123.265 46.9559 122.435 50.8664C121.629 54.6583 121.743 58.1229 122.671 61.3488C123.627 64.5212 125.246 67.1881 127.556 69.4332C129.919 71.5669 132.753 73.0092 136.179 73.7368L135.102 78.8075C130.795 77.8928 127.095 76.0268 124.003 73.2095C121.015 70.3244 118.914 66.8626 117.701 62.8241C116.544 58.8285 116.403 54.626 117.276 50.2169L117.364 49.7894C118.321 45.2835 120.105 41.4601 122.715 38.3191L122.97 38.017C125.651 34.8365 128.856 32.5698 132.586 31.2171L132.948 31.0891C136.937 29.6857 141.085 29.4414 145.392 30.3561L145.802 30.4463C150.015 31.4092 153.569 33.2883 156.464 36.0833C159.47 38.8823 161.57 42.3441 162.765 46.4687C164.064 50.5254 164.219 54.8795 163.231 59.5308L163.138 59.9571C162.141 64.3401 160.261 68.1131 157.496 71.2758L157.237 71.5729C154.538 74.6162 151.299 76.8265 147.518 78.2037C143.633 79.5392 139.495 79.7405 135.102 78.8075L136.179 73.7368C139.724 74.4897 142.887 74.3045 145.79 73.3152C148.825 72.2011 151.397 70.4171 153.566 67.8958L153.593 67.8643C155.821 65.3158 157.36 62.222 158.161 58.454ZM180.964 63.297C179.359 70.8534 176.248 77.4641 171.555 82.9895C167.02 88.3836 161.466 92.3395 154.949 94.7822L154.919 94.7935L154.889 94.8042C148.262 97.1947 141.304 97.577 134.139 96.0554C128.347 94.8253 123.148 92.4839 118.626 88.9979L118.577 88.9598L118.528 88.9199C117.457 88.0522 116.439 87.1401 115.474 86.1847L110.439 109.893C109.789 112.953 108.16 115.616 105.439 117.401C102.657 119.304 99.4616 119.748 96.3022 119.077C93.1181 118.401 90.4601 116.643 88.6631 113.877C86.8778 111.129 86.4652 108.016 87.1185 104.94L99.6383 45.9912L99.6456 45.9591C101.353 38.3927 104.621 31.7998 109.511 26.3179C114.213 21.047 119.897 17.2399 126.501 14.9571L127.143 14.7409C134.099 12.38 141.402 12.0565 148.939 13.6571C156.569 15.2777 163.174 18.5592 168.588 23.5752C173.916 28.4093 177.707 34.3193 179.927 41.2182C182.277 48.268 182.585 55.6652 180.964 63.297Z" fill="#2267E1"/>
<path d="M250.575 73.3285H232.662L218.987 52.9944V73.3285H203V6.5027H218.987V45.5481L231.41 25.5958H249.901L233.721 49.4622L250.575 73.3285Z" fill="black"/>
<path d="M286.089 25.5958H302.075V73.3285H286.089V68.9371C282.814 72.7557 278.256 74.6651 272.413 74.6651C265.993 74.6651 260.6 72.2784 256.234 67.5051C251.932 62.6682 249.782 56.6539 249.782 49.4622C249.782 42.2704 251.932 36.2879 256.234 31.5147C260.6 26.6777 265.993 24.2593 272.413 24.2593C278.256 24.2593 282.814 26.1686 286.089 29.9872V25.5958ZM268.657 57.0039C270.519 58.9133 272.959 59.8679 275.977 59.8679C278.994 59.8679 281.434 58.9133 283.296 57.0039C285.158 55.0946 286.089 52.5807 286.089 49.4622C286.089 46.3436 285.158 43.8297 283.296 41.9204C281.434 40.0111 278.994 39.0564 275.977 39.0564C272.959 39.0564 270.519 40.0111 268.657 41.9204C266.795 43.8297 265.865 46.3436 265.865 49.4622C265.865 52.5807 266.795 55.0946 268.657 57.0039Z" fill="black"/>
<path d="M340.716 24.2593C345.917 24.2593 350.154 26.0413 353.428 29.6053C356.767 33.1057 358.436 38.1654 358.436 44.7844V73.3285H342.45V46.7891C342.45 44.307 341.775 42.4295 340.427 41.1567C339.143 39.8838 337.41 39.2474 335.227 39.2474C332.723 39.2474 330.765 40.0111 329.352 41.5385C328.004 43.0023 327.33 45.1344 327.33 47.9347V73.3285H311.343V25.5958H327.33V30.3691C330.219 26.2959 334.681 24.2593 340.716 24.2593Z" fill="black"/>
<path d="M401.496 25.5958H417.291V71.4192C417.291 75.2378 416.552 78.611 415.075 81.5386C413.663 84.5298 411.737 86.8846 409.297 88.603C406.857 90.385 404.161 91.6897 401.208 92.5171C398.318 93.4081 395.237 93.8536 391.962 93.8536C386.633 93.8536 381.882 92.8671 377.709 90.8942C373.536 88.9212 370.39 86.0254 368.271 82.2068L381.561 74.5696C383.873 78.1973 387.275 80.0111 391.77 80.0111C394.659 80.0111 397.002 79.2792 398.8 77.8154C400.598 76.3516 401.496 74.2195 401.496 71.4192V66.8369C398.222 70.7828 393.728 72.7557 388.014 72.7557C381.401 72.7557 375.911 70.4009 371.546 65.6913C367.244 60.9817 365.093 55.2537 365.093 48.5075C365.093 41.7613 367.244 36.0334 371.546 31.3237C375.911 26.6141 381.401 24.2593 388.014 24.2593C393.728 24.2593 398.222 26.2322 401.496 30.1781V25.5958ZM383.873 55.6674C385.799 57.5131 388.271 58.4359 391.288 58.4359C394.306 58.4359 396.745 57.5131 398.607 55.6674C400.533 53.7581 401.496 51.3715 401.496 48.5075C401.496 45.6435 400.533 43.2887 398.607 41.4431C396.745 39.5338 394.306 38.5791 391.288 38.5791C388.271 38.5791 385.799 39.5338 383.873 41.4431C382.011 43.2887 381.08 45.6435 381.08 48.5075C381.08 51.3715 382.011 53.7581 383.873 55.6674Z" fill="black"/>
<path d="M232.662 114.829C239.082 114.829 244.443 117.248 248.745 122.084C253.111 126.858 255.294 132.84 255.294 140.032C255.294 147.224 253.111 153.238 248.745 158.075C244.443 162.848 239.082 165.235 232.662 165.235C226.819 165.235 222.261 163.326 218.987 159.507V182.991H203V116.166H218.987V120.557C222.261 116.738 226.819 114.829 232.662 114.829ZM221.779 147.574C223.641 149.483 226.081 150.438 229.099 150.438C232.116 150.438 234.556 149.483 236.418 147.574C238.28 145.664 239.211 143.151 239.211 140.032C239.211 136.913 238.28 134.4 236.418 132.49C234.556 130.581 232.116 129.626 229.099 129.626C226.081 129.626 223.641 130.581 221.779 132.49C219.918 134.4 218.987 136.913 218.987 140.032C218.987 143.151 219.918 145.664 221.779 147.574Z" fill="black"/>
<path d="M296.246 116.166H312.232V163.898H296.246V159.507C292.971 163.326 288.413 165.235 282.57 165.235C276.15 165.235 270.757 162.848 266.391 158.075C262.09 153.238 259.939 147.224 259.939 140.032C259.939 132.84 262.09 126.858 266.391 122.084C270.757 117.248 276.15 114.829 282.57 114.829C288.413 114.829 292.971 116.738 296.246 120.557V116.166ZM278.815 147.574C280.676 149.483 283.116 150.438 286.134 150.438C289.151 150.438 291.591 149.483 293.453 147.574C295.315 145.664 296.246 143.151 296.246 140.032C296.246 136.913 295.315 134.4 293.453 132.49C291.591 130.581 289.151 129.626 286.134 129.626C283.116 129.626 280.676 130.581 278.815 132.49C276.953 134.4 276.022 136.913 276.022 140.032C276.022 143.151 276.953 145.664 278.815 147.574Z" fill="black"/>
<path d="M336.45 109.578C334.652 111.361 332.502 112.252 329.998 112.252C327.494 112.252 325.311 111.361 323.449 109.578C321.651 107.733 320.752 105.569 320.752 103.087C320.752 100.605 321.651 98.4727 323.449 96.6906C325.311 94.9086 327.494 94.0176 329.998 94.0176C332.502 94.0176 334.652 94.9086 336.45 96.6906C338.312 98.4727 339.243 100.605 339.243 103.087C339.243 105.569 338.312 107.733 336.45 109.578ZM322.004 163.898V116.166H337.991V163.898C337.991 171.408 336.129 176.818 332.405 180.127C328.681 183.437 322.871 184.869 314.974 184.423V169.722C317.414 169.849 319.179 169.435 320.271 168.481C321.426 167.59 322.004 166.062 322.004 163.898Z" fill="black"/>
<path d="M381.171 116.166H397.158V163.898H381.171V159.507C377.897 163.326 373.338 165.235 367.496 165.235C361.075 165.235 355.682 162.848 351.316 158.075C347.015 153.238 344.864 147.224 344.864 140.032C344.864 132.84 347.015 126.858 351.316 122.084C355.682 117.248 361.075 114.829 367.496 114.829C373.338 114.829 377.897 116.738 381.171 120.557V116.166ZM363.74 147.574C365.602 149.483 368.041 150.438 371.059 150.438C374.076 150.438 376.516 149.483 378.378 147.574C380.24 145.664 381.171 143.151 381.171 140.032C381.171 136.913 380.24 134.4 378.378 132.49C376.516 130.581 374.076 129.626 371.059 129.626C368.041 129.626 365.602 130.581 363.74 132.49C361.878 134.4 360.947 136.913 360.947 140.032C360.947 143.151 361.878 145.664 363.74 147.574Z" fill="black"/>
<path d="M454 163.898H436.087L422.412 143.564V163.898H406.425V97.0725H422.412V136.118L434.835 116.166H453.326L437.147 140.032L454 163.898Z" fill="black"/>
</svg>
